<?xml version="1.0" standalone="no"?>
<!DOCTYPE svg PUBLIC "-//W3C//DTD SVG 20010904//EN"
 "http://www.w3.org/TR/2001/REC-SVG-20010904/DTD/svg10.dtd">
<svg version="1.0" xmlns="http://www.w3.org/2000/svg"
 width="500.000000pt" height="500.000000pt" viewBox="0 0 500.000000 500.000000"
 preserveAspectRatio="xMidYMid meet">

<g transform="translate(0.000000,500.000000) scale(0.100000,-0.100000)"
fill="#000000" stroke="none">
<path d="M1328 4800 c-66 -5 -83 -10 -115 -36 -60 -48 -83 -103 -83 -200 0
-108 28 -214 91 -344 72 -147 257 -420 396 -582 21 -24 56 -67 78 -93 22 -27
105 -126 184 -220 79 -93 163 -192 186 -220 68 -82 199 -257 232 -310 71 -113
100 -224 84 -322 -28 -173 -110 -295 -579 -858 -414 -496 -560 -712 -632 -940
-27 -86 -38 -245 -20 -299 16 -48 54 -92 101 -116 37 -20 67 -20 1261 -20
l1223 0 40 23 c21 12 53 42 70 65 29 42 30 47 30 155 0 97 -4 123 -29 197 -32
95 -88 211 -149 310 -64 103 -252 350 -406 535 -424 506 -535 652 -602 792
-115 236 -68 381 245 763 61 74 181 218 266 320 384 457 532 666 624 882 101
237 84 429 -44 495 l-45 23 -1165 3 c-641 1 -1200 0 -1242 -3z"/>
</g>
</svg>
